<?xml version="1.0" encoding="UTF-8" standalone="no"?>
<!DOCTYPE svg PUBLIC "-//W3C//DTD SVG 1.1//EN" "http://www.w3.org/Graphics/SVG/1.1/DTD/svg11.dtd">
<!-- Created with Vectornator (http://vectornator.io/) -->
<svg height="100%" stroke-miterlimit="10" style="fill-rule:nonzero;clip-rule:evenodd;stroke-linecap:round;stroke-linejoin:round;" version="1.1" viewBox="0 0 512 512" width="100%" xml:space="preserve" xmlns="http://www.w3.org/2000/svg" xmlns:vectornator="http://vectornator.io" xmlns:xlink="http://www.w3.org/1999/xlink">
<defs/>
<g id="_x35_21_x2C__power_x2C__knowledge_x2C__education_x2C__books" vectornator:layerName="_x35_21_x2C__power_x2C__knowledge_x2C__education_x2C__books">
<path d="M136 386L128.48 446.15C127.06 457.49 117.43 466 106 466C94.57 466 84.94 457.49 83.52 446.15L76 386L136 386Z" fill="#859581" fill-rule="nonzero" opacity="1" stroke="none"/>
<path d="M93.854 455.15L86.333 395L134.875 395L136 386L76 386L83.52 446.15C84.543 454.325 89.844 461.008 96.999 464.114C95.375 461.449 94.263 458.424 93.854 455.15Z" fill="#384e31" fill-rule="nonzero" opacity="1" stroke="none"/>
<path d="M436 386L428.48 446.15C427.06 457.49 417.43 466 406 466C394.57 466 384.94 457.49 383.52 446.15L376 386L436 386Z" fill="#859581" fill-rule="nonzero" opacity="1" stroke="none"/>
<path d="M393.52 455.15L386 395L434.875 395L436 386L376 386L383.52 446.15C384.523 454.152 389.623 460.729 396.548 463.917C394.989 461.299 393.92 458.344 393.52 455.15Z" fill="#384e31" fill-rule="nonzero" opacity="1" stroke="none"/>
<path d="M486 346L486 386L436 386L376 386L136 386L76 386L26 386L26 346L486 346Z" fill="#111710" fill-rule="nonzero" opacity="1" stroke="none"/>
<path d="M35.5 355.834L486 355.834L486 346L26 346L26 386L35.5 386L35.5 355.834Z" fill="#111710" fill-rule="nonzero" opacity="1" stroke="none"/>
<path d="M446 316L446 346L101 346C76.15 346 56 325.85 56 301C56 288.58 61.04 277.32 69.18 269.18C77.32 261.04 88.58 256 101 256L106 256L146 256L186 256L226 256L426 256L446 256L446 286L446 316Z" fill="#58443a" fill-rule="nonzero" opacity="1" stroke="none"/>
<path d="M58.833 313.667C58.833 301.247 63.873 289.987 72.013 281.847C80.153 273.707 91.413 268.667 103.833 268.667L108.833 268.667L148.833 268.667L188.833 268.667L228.833 268.667L428.833 268.667L446 268.667L446 256L426 256L226 256L186 256L146 256L106 256L101 256C88.58 256 77.32 261.04 69.18 269.18C61.04 277.32 56 288.58 56 301C56 306.672 57.06 312.094 58.976 317.093C58.891 315.961 58.833 314.821 58.833 313.667Z" fill="#111710" fill-rule="nonzero" opacity="1" stroke="none"/>
<path d="M186 256L146 256L106 256L106 186L126 186L346 186L356 186L426 186L426 256L226 256L186 256Z" fill="#859581" fill-rule="nonzero" opacity="1" stroke="none"/>
<path d="M115.333 195.833L135.333 195.833L355.334 195.833L365.334 195.833L426 195.833L426 186L356 186L346 186L126 186L106 186L106 256L115.333 256L115.333 195.833Z" fill="#384e31" fill-rule="nonzero" opacity="1" stroke="none"/>
<path d="M346 186L126 186L126 86L356 86C369.8 86 382.3 91.6 391.35 100.65C400.4 109.7 406 122.2 406 136C406 163.61 383.61 186 356 186L346 186Z" fill="#ffffff" fill-rule="nonzero" opacity="1" stroke="none"/>
<path d="M136 97.5L366 97.5C378.308 97.5 389.573 101.963 398.287 109.346C396.296 106.195 393.974 103.274 391.349 100.65C382.3 91.6 369.8 86 356 86L126 86L126 186L136 186L136 97.5Z" fill="#fff8de" fill-rule="nonzero" opacity="1" stroke="none"/>
<path d="M246 126L266 126L266 126L266 146L266 146L246 146L246 146L246 126L246 126Z" fill="#000000" fill-rule="nonzero" opacity="1" stroke="none"/>
<path d="M216 126L236 126L236 126L236 146L236 146L216 146L216 146L216 126L216 126Z" fill="#000000" fill-rule="nonzero" opacity="1" stroke="none"/>
<path d="M186 126L206 126L206 126L206 146L206 146L186 146L186 146L186 126L186 126Z" fill="#000000" fill-rule="nonzero" opacity="1" stroke="none"/>
<path d="M156 126L176 126L176 126L176 146L176 146L156 146L156 146L156 126L156 126Z" fill="#000000" fill-rule="nonzero" opacity="1" stroke="none"/>
<path d="M446 351L101 351C73.43 351 51 328.57 51 301C51 287.645 56.201 275.088 65.645 265.645C75.089 256.202 87.644 251 101 251L106 251C108.761 251 111 253.239 111 256C111 258.762 108.761 261 106 261L101 261C90.315 261 80.271 265.16 72.716 272.716C65.161 280.271 61 290.314 61 301C61 323.056 78.944 341 101 341L441 341L441 261L426 261C423.238 261 421 258.762 421 256C421 253.239 423.238 251 426 251L446 251C448.762 251 451 253.239 451 256L451 346C451 348.762 448.762 351 446 351Z" fill="#000000" fill-rule="nonzero" opacity="1" stroke="none"/>
<path d="M356 191C353.238 191 351 188.761 351 186C351 183.239 353.238 181 356 181C380.813 181 401 160.813 401 136C401 123.987 396.317 112.688 387.814 104.186C379.312 95.683 368.013 91 356 91L131 91L131 186C131 188.761 128.761 191 126 191C123.239 191 121 188.761 121 186L121 86C121 83.239 123.239 81 126 81L356 81C370.684 81 384.493 86.723 394.885 97.114C405.277 107.505 411 121.315 411 136C411 166.327 386.327 191 356 191Z" fill="#000000" fill-rule="nonzero" opacity="1" stroke="none"/>
<path d="M426 261L106 261C103.239 261 101 258.762 101 256L101 186C101 183.239 103.239 181 106 181L426 181C428.762 181 431 183.239 431 186L431 256C431 258.762 428.762 261 426 261ZM111 251L421 251L421 191L365.938 191L111 191L111 251Z" fill="#000000" fill-rule="nonzero" opacity="1" stroke="none"/>
<path d="M146 261C143.239 261 141 258.762 141 256L141 216C141 213.239 143.239 211 146 211C148.761 211 151 213.239 151 216L151 256C151 258.762 148.761 261 146 261Z" fill="#000000" fill-rule="nonzero" opacity="1" stroke="none"/>
<path d="M186 261C183.239 261 181 258.762 181 256L181 216C181 213.239 183.239 211 186 211C188.761 211 191 213.239 191 216L191 256C191 258.762 188.761 261 186 261Z" fill="#000000" fill-rule="nonzero" opacity="1" stroke="none"/>
<path d="M226 261C223.239 261 221 258.762 221 256L221 216C221 213.239 223.239 211 226 211C228.761 211 231 213.239 231 216L231 256C231 258.762 228.761 261 226 261Z" fill="#000000" fill-rule="nonzero" opacity="1" stroke="none"/>
<path d="M446 321L126 321C123.239 321 121 318.762 121 316C121 313.238 123.239 311 126 311L446 311C448.762 311 451 313.238 451 316C451 318.762 448.762 321 446 321Z" fill="#000000" fill-rule="nonzero" opacity="1" stroke="none"/>
<path d="M446 291L126 291C123.239 291 121 288.762 121 286C121 283.238 123.239 281 126 281L446 281C448.762 281 451 283.238 451 286C451 288.762 448.762 291 446 291Z" fill="#000000" fill-rule="nonzero" opacity="1" stroke="none"/>
<path d="M346 191C343.238 191 341 188.761 341 186L341 116C341 113.239 343.238 111 346 111C348.762 111 351 113.239 351 116L351 186C351 188.761 348.762 191 346 191Z" fill="#000000" fill-rule="nonzero" opacity="1" stroke="none"/>
<path d="M376 391L136 391C133.239 391 131 388.762 131 386C131 383.238 133.239 381 136 381L376 381C378.762 381 381 383.238 381 386C381 388.762 378.762 391 376 391Z" fill="#000000" fill-rule="nonzero" opacity="1" stroke="none"/>
<path d="M486 391L436 391C433.238 391 431 388.762 431 386C431 383.238 433.238 381 436 381L481 381L481 351L31 351L31 381L76 381C78.761 381 81 383.238 81 386C81 388.762 78.761 391 76 391L26 391C23.239 391 21 388.762 21 386L21 346C21 343.238 23.239 341 26 341L486 341C488.762 341 491 343.238 491 346L491 386C491 388.762 488.762 391 486 391Z" fill="#000000" fill-rule="nonzero" opacity="1" stroke="none"/>
<path d="M106 471C92.085 471 80.288 460.584 78.559 446.771L71.039 386.62C70.861 385.197 71.303 383.766 72.252 382.691C73.201 381.616 74.566 381 76 381L136 381C137.434 381 138.799 381.616 139.749 382.691C140.699 383.766 141.14 385.197 140.962 386.62L133.442 446.77C131.712 460.584 119.915 471 106 471ZM81.664 391L88.481 445.53C89.585 454.349 97.117 461 106 461C114.883 461 122.415 454.349 123.519 445.529L130.336 391L81.664 391Z" fill="#000000" fill-rule="nonzero" opacity="1" stroke="none"/>
<path d="M406 471C392.086 471 380.289 460.584 378.559 446.772L371.039 386.62C370.86 385.197 371.303 383.766 372.252 382.691C373.201 381.616 374.565 381 376 381L436 381C437.435 381 438.799 381.616 439.748 382.691C440.697 383.766 441.14 385.197 440.961 386.62L433.441 446.77C431.711 460.584 419.914 471 406 471ZM381.664 391L388.48 445.53C389.585 454.348 397.117 461 406 461C414.883 461 422.414 454.349 423.52 445.528L430.336 391L381.664 391Z" fill="#000000" fill-rule="nonzero" opacity="1" stroke="none"/>
</g>
</svg>
